<svg width="29" height="28" viewBox="0 0 29 28" fill="none" xmlns="http://www.w3.org/2000/svg">
<path d="M28.498 20.8756V26.3762C28.498 27.1928 27.8666 27.8704 27.0522 27.928C26.3718 27.976 25.8167 28 25.3869 28C11.6411 28 0.498047 16.8569 0.498047 3.11111C0.498047 2.68133 0.52208 2.12624 0.570147 1.44589C0.627734 0.631369 1.30529 0 2.12183 0H7.62265C8.02193 0 8.35634 0.302431 8.39643 0.699689C8.43242 1.05633 8.46588 1.34266 8.49682 1.5587C8.81148 3.75623 9.4542 5.84789 10.3738 7.78249C10.5214 8.09301 10.4252 8.46469 10.1454 8.66454L6.78801 11.0628C8.83197 15.8373 12.6608 19.6661 17.4352 21.7101L19.8291 18.3585C20.0315 18.0754 20.4076 17.978 20.7218 18.1272C22.6563 19.0461 24.7478 19.688 26.945 20.002C27.1596 20.0328 27.4442 20.0659 27.7984 20.1017C28.1956 20.1418 28.498 20.4762 28.498 20.8756Z" fill="black"/>
</svg>
