<svg width="29" height="29" viewBox="0 0 29 29" fill="none" xmlns="http://www.w3.org/2000/svg">
<path d="M14.4306 0.5C6.73066 0.5 0.430664 6.81124 0.430664 14.5844C0.430664 21.6125 5.55466 27.4458 12.2466 28.5V18.6607H8.69065V14.5844H12.2466V11.4779C12.2466 7.94979 14.3326 6.01004 17.5386 6.01004C19.0646 6.01004 20.6606 6.2771 20.6606 6.2771V9.74899H18.8966C17.1606 9.74899 16.6146 10.8313 16.6146 11.9418V14.5844H20.5066L19.8766 18.6607H16.6146V28.5C19.9136 27.9768 22.9177 26.2869 25.0845 23.7349C27.2513 21.1832 28.4382 17.9376 28.4306 14.5844C28.4306 6.81124 22.1306 0.5 14.4306 0.5Z" fill="#F2F2F2"/>
</svg>
