<svg width="59" height="57" viewBox="0 0 59 57" fill="none" xmlns="http://www.w3.org/2000/svg">
<rect x="0.498047" width="58" height="57" rx="28.5" fill="#434343"/>
<path d="M26.098 42V27.816H22.642V23.748H27.646L26.098 25.152V22.524C26.098 20.148 26.71 18.36 27.934 17.16C29.182 15.96 31.042 15.36 33.514 15.36C34.066 15.36 34.654 15.396 35.278 15.468C35.926 15.54 36.49 15.684 36.97 15.9V20.076C36.634 19.956 36.25 19.872 35.818 19.824C35.386 19.752 34.966 19.716 34.558 19.716C34.006 19.716 33.49 19.812 33.01 20.004C32.554 20.196 32.182 20.52 31.894 20.976C31.63 21.408 31.498 21.996 31.498 22.74V24.648L30.742 23.748H36.106V27.816H31.534V42H26.098Z" fill="white"/>
</svg>
