<svg width="29" height="29" viewBox="0 0 29 29" fill="none" xmlns="http://www.w3.org/2000/svg">
<g clip-path="url(#clip0_94_1168)">
<path d="M28.4307 14.5C28.4307 6.76801 22.1626 0.5 14.4307 0.5C6.69868 0.5 0.430664 6.76801 0.430664 14.5C0.430664 22.232 6.69868 28.5 14.4307 28.5C22.1626 28.5 28.4307 22.232 28.4307 14.5Z" fill="#F2F2F2"/>
<path d="M11.5145 14.5C11.5145 12.8892 12.8199 11.5831 14.4307 11.5831C16.0414 11.5831 17.3476 12.8892 17.3476 14.5C17.3476 16.1108 16.0414 17.4169 14.4307 17.4169C12.8199 17.4169 11.5145 16.1108 11.5145 14.5ZM9.93766 14.5C9.93766 16.9815 11.9492 18.993 14.4307 18.993C16.9122 18.993 18.9237 16.9815 18.9237 14.5C18.9237 12.0185 16.9122 10.007 14.4307 10.007C11.9492 10.007 9.93766 12.0185 9.93766 14.5ZM18.0515 9.82884C18.0515 10.0365 18.113 10.2395 18.2283 10.4122C18.3436 10.585 18.5075 10.7196 18.6993 10.7992C18.8912 10.8787 19.1023 10.8996 19.306 10.8592C19.5097 10.8187 19.6968 10.7188 19.8437 10.572C19.9907 10.4252 20.0907 10.2382 20.1313 10.0345C20.1719 9.83082 20.1512 9.61972 20.0718 9.4278C19.9924 9.23594 19.8579 9.07191 19.6853 8.95647C19.5126 8.84103 19.3097 8.77931 19.102 8.77925C18.8236 8.77937 18.5562 8.88997 18.3594 9.08678C18.1625 9.2836 18.0518 9.55047 18.0515 9.82884ZM10.8957 21.6223C10.0426 21.5834 9.57891 21.4413 9.27073 21.3213C8.86222 21.1622 8.57073 20.9728 8.26431 20.6668C7.95782 20.3608 7.76812 20.0695 7.60981 19.661C7.4897 19.353 7.3476 18.8892 7.30881 18.0361C7.2664 17.1138 7.25788 16.8367 7.25788 14.5001C7.25788 12.1634 7.2671 11.8871 7.30881 10.964C7.34766 10.1109 7.49081 9.64801 7.60981 9.33913C7.76882 8.93057 7.95823 8.63913 8.26431 8.33265C8.57032 8.02617 8.86152 7.83647 9.27073 7.67815C9.57873 7.55804 10.0426 7.41594 10.8957 7.37715C11.818 7.33474 12.0951 7.32628 14.4307 7.32628C16.7663 7.32628 17.0436 7.33544 17.9667 7.37715C18.8198 7.416 19.2827 7.55915 19.5916 7.67815C20.0002 7.83647 20.2916 8.02663 20.5981 8.33265C20.9046 8.63867 21.0936 8.93057 21.2526 9.33913C21.3727 9.64713 21.5148 10.1109 21.5536 10.964C21.596 11.8871 21.6045 12.1634 21.6045 14.5001C21.6045 16.8367 21.596 17.113 21.5536 18.0361C21.5147 18.8892 21.3719 19.3529 21.2526 19.661C21.0936 20.0695 20.9041 20.361 20.5981 20.6668C20.2921 20.9726 20.0002 21.1622 19.5916 21.3213C19.2836 21.4414 18.8198 21.5835 17.9667 21.6223C17.0444 21.6647 16.7673 21.6732 14.4307 21.6732C12.094 21.6732 11.8177 21.6647 10.8957 21.6223ZM10.8232 5.80299C9.89175 5.84541 9.25521 5.99311 8.69936 6.20941C8.12366 6.43279 7.63635 6.73245 7.14932 7.21866C6.66236 7.70487 6.36346 8.193 6.14007 8.76869C5.92377 9.3249 5.77607 9.96108 5.73365 10.8925C5.69053 11.8255 5.68066 12.1238 5.68066 14.5C5.68066 16.8762 5.69053 17.1745 5.73365 18.1074C5.77607 19.039 5.92377 19.6751 6.14007 20.2313C6.36346 20.8066 6.66241 21.2953 7.14932 21.7813C7.63623 22.2673 8.12366 22.5666 8.69936 22.7906C9.25626 23.0069 9.89175 23.1546 10.8232 23.197C11.7567 23.2394 12.0545 23.25 14.4307 23.25C16.8069 23.25 17.1051 23.2401 18.0381 23.197C18.9697 23.1546 19.6058 23.0069 20.162 22.7906C20.7373 22.5666 21.225 22.2675 21.712 21.7813C22.199 21.2951 22.4972 20.8066 22.7212 20.2313C22.9375 19.6751 23.0859 19.0389 23.1277 18.1074C23.1701 17.1738 23.18 16.8762 23.18 14.5C23.18 12.1238 23.1701 11.8255 23.1277 10.8925C23.0852 9.96097 22.9375 9.32455 22.7212 8.76869C22.4972 8.19335 22.1982 7.70568 21.712 7.21866C21.2258 6.73169 20.7373 6.43279 20.1627 6.20941C19.6058 5.99311 18.9696 5.84471 18.0388 5.80299C17.1058 5.76057 16.8076 5.75 14.4314 5.75C12.0552 5.75 11.7567 5.75987 10.8232 5.80299Z" fill="#001C32"/>
</g>
<defs>
<clipPath id="clip0_94_1168">
<rect width="28" height="28" fill="white" transform="translate(0.430664 0.5)"/>
</clipPath>
</defs>
</svg>
