<svg width="58" height="57" viewBox="0 0 58 57" fill="none" xmlns="http://www.w3.org/2000/svg">
<rect x="0.498047" width="57" height="57" rx="28.5" fill="#434343"/>
<path fill-rule="evenodd" clip-rule="evenodd" d="M25.6372 24.6801H29.8977V26.8915H29.9596C30.553 25.8138 32.0039 24.6801 34.1674 24.6801C38.6662 24.6801 39.498 27.515 39.498 31.2029V39H35.0552L35.0545 32.0558C35.0545 30.468 35.0222 28.4246 32.7441 28.4246C30.4312 28.4246 30.0762 30.1525 30.0762 31.9404V39H25.6372V24.6801ZM23.1194 20.3394C23.1194 21.6305 22.0841 22.6788 20.8091 22.6788C19.5334 22.6788 18.498 21.6305 18.498 20.3394C18.498 19.0477 19.5334 18 20.8091 18C22.0841 18 23.1194 19.0477 23.1194 20.3394ZM18.498 24.6801H23.1194V39H18.498V24.6801Z" fill="white"/>
</svg>
