<svg width="29" height="29" viewBox="0 0 29 29" fill="none" xmlns="http://www.w3.org/2000/svg">
<path d="M14.4307 0.5C6.69785 0.5 0.430664 6.76719 0.430664 14.5C0.430664 22.2328 6.69785 28.5 14.4307 28.5C22.1635 28.5 28.4307 22.2328 28.4307 14.5C28.4307 6.76719 22.1635 0.5 14.4307 0.5ZM10.515 20.357H7.78613V11.6234H10.515V20.357ZM9.07676 10.5297H9.05488C8.06504 10.5297 7.4252 9.8625 7.4252 9.01484C7.4252 8.15078 8.08691 7.5 9.09316 7.5C10.0994 7.5 10.7174 8.15078 10.7393 9.01484C10.7447 9.85703 10.1049 10.5297 9.07676 10.5297ZM21.4307 20.357H18.3354V15.8398C18.3354 14.6586 17.8541 13.8492 16.7877 13.8492C15.9729 13.8492 15.5189 14.3961 15.3111 14.9211C15.2346 15.107 15.2455 15.3695 15.2455 15.6375V20.357H12.1775C12.1775 20.357 12.2158 12.3508 12.1775 11.6234H15.2455V12.9961C15.426 12.3945 16.4049 11.5414 17.9689 11.5414C19.9104 11.5414 21.4307 12.7992 21.4307 15.5008V20.357Z" fill="#F2F2F2"/>
</svg>
