<svg width="22" height="26" viewBox="0 0 22 26" fill="none" xmlns="http://www.w3.org/2000/svg">
<path d="M10.9307 12.35C9.9361 12.35 8.98228 12.0076 8.27901 11.3981C7.57575 10.7886 7.18066 9.96195 7.18066 9.1C7.18066 8.23805 7.57575 7.4114 8.27901 6.8019C8.98228 6.19241 9.9361 5.85 10.9307 5.85C11.9252 5.85 12.8791 6.19241 13.5823 6.8019C14.2856 7.4114 14.6807 8.23805 14.6807 9.1C14.6807 9.5268 14.5837 9.94941 14.3952 10.3437C14.2068 10.738 13.9305 11.0963 13.5823 11.3981C13.2341 11.6999 12.8207 11.9393 12.3657 12.1026C11.9108 12.2659 11.4231 12.35 10.9307 12.35ZM10.9307 0C8.14589 0 5.47517 0.958747 3.50604 2.66533C1.53691 4.37191 0.430664 6.68653 0.430664 9.1C0.430664 15.925 10.9307 26 10.9307 26C10.9307 26 21.4307 15.925 21.4307 9.1C21.4307 6.68653 20.3244 4.37191 18.3553 2.66533C16.3862 0.958747 13.7154 0 10.9307 0Z" fill="#EEEEEE"/>
</svg>
