<svg width="23" height="18" viewBox="0 0 23 18" fill="none" xmlns="http://www.w3.org/2000/svg">
<path d="M2.4298 17.665C1.86039 17.665 1.38505 17.4743 1.00379 17.0931C0.621707 16.711 0.430664 16.2352 0.430664 15.6658V2.3341C0.430664 1.76469 0.621707 1.28935 1.00379 0.908089C1.38505 0.526003 1.86039 0.334961 2.4298 0.334961H20.713C21.2824 0.334961 21.7577 0.526003 22.139 0.908089C22.5211 1.28935 22.7121 1.76469 22.7121 2.3341V15.6658C22.7121 16.2352 22.5215 16.7106 22.1402 17.0918C21.7581 17.4739 21.2824 17.665 20.713 17.665H2.4298ZM11.5714 9.14231L21.4742 2.66832L21.093 1.57282L11.5714 7.7621L2.04978 1.57282L1.66852 2.66832L11.5714 9.14231Z" fill="#EEEEEE"/>
</svg>
