<svg width="58" height="58" viewBox="0 0 58 58" fill="none" xmlns="http://www.w3.org/2000/svg">
<rect x="0.498047" y="1.32031" width="56" height="56" rx="28" transform="rotate(-1.35059 0.498047 1.32031)" fill="#434343"/>
<path fill-rule="evenodd" clip-rule="evenodd" d="M44.93 19.1156C43.7654 19.629 42.5061 19.9815 41.1865 20.1566C42.5243 19.3752 43.533 18.163 43.9944 16.7374C42.7437 17.4589 41.3477 17.9996 39.8622 18.3062C38.6348 17.1577 36.9138 16.4664 35.0263 16.5109C31.4021 16.5963 28.5318 19.3762 28.6107 22.7202C28.6218 23.1923 28.6893 23.6526 28.8109 24.0953C23.3516 23.9688 18.4602 21.6724 15.1373 18.0814C14.5774 19.0204 14.2958 20.0784 14.3212 21.1483C14.3707 23.2479 15.5692 25.0778 17.3565 26.1194C16.2807 26.1153 15.2629 25.8622 14.3644 25.4345L14.3661 25.5103C14.4354 28.4467 16.7537 30.8435 19.7705 31.3265C19.2236 31.4773 18.6444 31.5674 18.0458 31.5815C17.622 31.5915 17.2124 31.5608 16.8047 31.5022C17.7002 33.8873 20.1633 35.5832 23.0326 35.5668C20.8222 37.2464 18.0207 38.2816 14.9418 38.3541C14.4105 38.3667 13.892 38.3489 13.3736 38.3038C16.3247 39.9593 19.796 40.8766 23.5001 40.7893C35.5673 40.5048 41.9541 31.116 41.7654 23.1104C41.7591 22.8443 41.7465 22.5867 41.7286 22.3264C42.9903 21.4497 44.0762 20.3551 44.9272 19.1183L44.9301 19.1155L44.93 19.1156Z" fill="white"/>
</svg>
